<svg width="800" height="600" viewBox="0 0 800 600" fill="none" xmlns="http://www.w3.org/2000/svg">
  <!-- Background -->
  <rect width="800" height="600" fill="#F8FAFC"/>
  
  <!-- Header -->
  <rect width="800" height="60" fill="#2563EB"/>
  <text x="20" y="35" fill="white" font-family="Inter, sans-serif" font-size="18" font-weight="600">Colmed - Sistem Monitorizare</text>
  
  <!-- Dashboard Title -->
  <rect x="20" y="80" width="760" height="40" fill="#DBEAFE" rx="4"/>
  <text x="30" y="105" fill="#1F2937" font-family="Inter, sans-serif" font-size="16" font-weight="500">Dashboard Monitorizare în Timp Real</text>
  
  <!-- Key Metrics -->
  <g>
    <rect x="20" y="140" width="180" height="100" fill="white" stroke="#E5E7EB" rx="8"/>
    <text x="30" y="165" fill="#6B7280" font-family="Inter, sans-serif" font-size="12">Pacienți în Așteptare</text>
    <text x="30" y="190" fill="#EF4444" font-family="Inter, sans-serif" font-size="36" font-weight="700">23</text>
    <text x="30" y="210" fill="#10B981" font-family="Inter, sans-serif" font-size="12">↓ 15% față de ieri</text>
    <text x="30" y="225" fill="#6B7280" font-family="Inter, sans-serif" font-size="11">Timp mediu: 12 min</text>
  </g>
  
  <g>
    <rect x="210" y="140" width="180" height="100" fill="white" stroke="#E5E7EB" rx="8"/>
    <text x="220" y="165" fill="#6B7280" font-family="Inter, sans-serif" font-size="12">Consultații Astăzi</text>
    <text x="220" y="190" fill="#2563EB" font-family="Inter, sans-serif" font-size="36" font-weight="700">87</text>
    <text x="220" y="210" fill="#10B981" font-family="Inter, sans-serif" font-size="12">↑ 8% față de ieri</text>
    <text x="220" y="225" fill="#6B7280" font-family="Inter, sans-serif" font-size="11">Obiectiv: 95</text>
  </g>
  
  <g>
    <rect x="400" y="140" width="180" height="100" fill="white" stroke="#E5E7EB" rx="8"/>
    <text x="410" y="165" fill="#6B7280" font-family="Inter, sans-serif" font-size="12">Doctori Activi</text>
    <text x="410" y="190" fill="#10B981" font-family="Inter, sans-serif" font-size="36" font-weight="700">12</text>
    <text x="410" y="210" fill="#6B7280" font-family="Inter, sans-serif" font-size="12">din 14 disponibili</text>
    <text x="410" y="225" fill="#F59E0B" font-family="Inter, sans-serif" font-size="11">2 în pauză</text>
  </g>
  
  <g>
    <rect x="590" y="140" width="180" height="100" fill="white" stroke="#E5E7EB" rx="8"/>
    <text x="600" y="165" fill="#6B7280" font-family="Inter, sans-serif" font-size="12">Utilizare Săli</text>
    <text x="600" y="190" fill="#8B5CF6" font-family="Inter, sans-serif" font-size="36" font-weight="700">85%</text>
    <text x="600" y="210" fill="#10B981" font-family="Inter, sans-serif" font-size="12">Optim</text>
    <text x="600" y="225" fill="#6B7280" font-family="Inter, sans-serif" font-size="11">7/8 săli ocupate</text>
  </g>
  
  <!-- Real-time Chart -->
  <rect x="20" y="260" width="500" height="200" fill="white" stroke="#E5E7EB" rx="8"/>
  <text x="30" y="285" fill="#1F2937" font-family="Inter, sans-serif" font-size="16" font-weight="600">Trafic Pacienți - Ultimele 6 ore</text>
  
  <!-- Chart Area -->
  <rect x="40" y="300" width="460" height="140" fill="#F8FAFC"/>
  
  <!-- Chart Line -->
  <polyline points="40,420 80,400 120,380 160,360 200,340 240,320 280,310 320,300 360,290 400,285 440,280 480,275" 
            fill="none" stroke="#2563EB" stroke-width="3"/>
  
  <!-- Chart Points -->
  <circle cx="80" cy="400" r="4" fill="#2563EB"/>
  <circle cx="160" cy="360" r="4" fill="#2563EB"/>
  <circle cx="240" cy="320" r="4" fill="#2563EB"/>
  <circle cx="320" cy="300" r="4" fill="#2563EB"/>
  <circle cx="400" cy="285" r="4" fill="#2563EB"/>
  <circle cx="480" cy="275" r="4" fill="#2563EB"/>
  
  <!-- Y-axis labels -->
  <text x="30" y="305" fill="#6B7280" font-family="Inter, sans-serif" font-size="10">50</text>
  <text x="30" y="340" fill="#6B7280" font-family="Inter, sans-serif" font-size="10">30</text>
  <text x="30" y="375" fill="#6B7280" font-family="Inter, sans-serif" font-size="10">20</text>
  <text x="30" y="410" fill="#6B7280" font-family="Inter, sans-serif" font-size="10">10</text>
  <text x="35" y="440" fill="#6B7280" font-family="Inter, sans-serif" font-size="10">0</text>
  
  <!-- X-axis labels -->
  <text x="75" y="455" fill="#6B7280" font-family="Inter, sans-serif" font-size="10">08:00</text>
  <text x="155" y="455" fill="#6B7280" font-family="Inter, sans-serif" font-size="10">10:00</text>
  <text x="235" y="455" fill="#6B7280" font-family="Inter, sans-serif" font-size="10">12:00</text>
  <text x="315" y="455" fill="#6B7280" font-family="Inter, sans-serif" font-size="10">14:00</text>
  <text x="395" y="455" fill="#6B7280" font-family="Inter, sans-serif" font-size="10">16:00</text>
  <text x="475" y="455" fill="#6B7280" font-family="Inter, sans-serif" font-size="10">18:00</text>
  
  <!-- Alerts Panel -->
  <rect x="540" y="260" width="240" height="200" fill="white" stroke="#E5E7EB" rx="8"/>
  <text x="550" y="285" fill="#1F2937" font-family="Inter, sans-serif" font-size="16" font-weight="600">Alerte Active</text>
  
  <!-- Alert Items -->
  <g>
    <rect x="550" y="300" width="220" height="35" fill="#FEF2F2" stroke="#FECACA" rx="4"/>
    <circle cx="560" cy="317" r="4" fill="#EF4444"/>
    <text x="575" y="315" fill="#EF4444" font-family="Inter, sans-serif" font-size="11" font-weight="500">Coadă lungă Cardiologie</text>
    <text x="575" y="328" fill="#6B7280" font-family="Inter, sans-serif" font-size="10">15 pacienți în așteptare</text>
  </g>
  
  <g>
    <rect x="550" y="345" width="220" height="35" fill="#FFFBEB" stroke="#FED7AA" rx="4"/>
    <circle cx="560" cy="362" r="4" fill="#F59E0B"/>
    <text x="575" y="360" fill="#F59E0B" font-family="Inter, sans-serif" font-size="11" font-weight="500">Sala 3 - întârziere</text>
    <text x="575" y="373" fill="#6B7280" font-family="Inter, sans-serif" font-size="10">Consultație depășită cu 20 min</text>
  </g>
  
  <g>
    <rect x="550" y="390" width="220" height="35" fill="#F0FDF4" stroke="#BBF7D0" rx="4"/>
    <circle cx="560" cy="407" r="4" fill="#10B981"/>
    <text x="575" y="405" fill="#10B981" font-family="Inter, sans-serif" font-size="11" font-weight="500">Sistem funcțional</text>
    <text x="575" y="418" fill="#6B7280" font-family="Inter, sans-serif" font-size="10">Toate modulele operaționale</text>
  </g>
  
  <!-- Performance Indicators -->
  <rect x="20" y="480" width="760" height="100" fill="white" stroke="#E5E7EB" rx="8"/>
  <text x="30" y="505" fill="#1F2937" font-family="Inter, sans-serif" font-size="16" font-weight="600">Indicatori de Performanță</text>
  
  <!-- Progress Bars -->
  <g>
    <text x="30" y="530" fill="#6B7280" font-family="Inter, sans-serif" font-size="12">Satisfacția Pacienților</text>
    <rect x="30" y="535" width="200" height="8" fill="#E5E7EB" rx="4"/>
    <rect x="30" y="535" width="176" height="8" fill="#10B981" rx="4"/>
    <text x="240" y="542" fill="#10B981" font-family="Inter, sans-serif" font-size="12" font-weight="600">88%</text>
  </g>
  
  <g>
    <text x="300" y="530" fill="#6B7280" font-family="Inter, sans-serif" font-size="12">Eficiența Programărilor</text>
    <rect x="300" y="535" width="200" height="8" fill="#E5E7EB" rx="4"/>
    <rect x="300" y="535" width="184" height="8" fill="#2563EB" rx="4"/>
    <text x="510" y="542" fill="#2563EB" font-family="Inter, sans-serif" font-size="12" font-weight="600">92%</text>
  </g>
  
  <g>
    <text x="570" y="530" fill="#6B7280" font-family="Inter, sans-serif" font-size="12">Utilizare Resurse</text>
    <rect x="570" y="535" width="200" height="8" fill="#E5E7EB" rx="4"/>
    <rect x="570" y="535" width="150" height="8" fill="#F59E0B" rx="4"/>
    <text x="780" y="542" fill="#F59E0B" font-family="Inter, sans-serif" font-size="12" font-weight="600">75%</text>
  </g>
  
  <!-- Colmed Branding -->
  <text x="700" y="590" fill="#6B7280" font-family="Inter, sans-serif" font-size="12">Colmed 2025</text>
</svg>