<svg width="800" height="600" viewBox="0 0 800 600" fill="none" xmlns="http://www.w3.org/2000/svg">
  <!-- Background -->
  <rect width="800" height="600" fill="#F8FAFC"/>
  
  <!-- Header -->
  <rect width="800" height="60" fill="#2563EB"/>
  <text x="20" y="35" fill="white" font-family="Inter, sans-serif" font-size="18" font-weight="600">Colmed - Gestionare Structură</text>
  
  <!-- Organization Tree -->
  <rect x="20" y="80" width="760" height="40" fill="#DBEAFE" rx="4"/>
  <text x="30" y="105" fill="#1F2937" font-family="Inter, sans-serif" font-size="16" font-weight="500">Structura Organizațională</text>
  
  <!-- Main Clinic -->
  <rect x="300" y="140" width="200" height="60" fill="#2563EB" rx="8"/>
  <text x="380" y="165" fill="white" font-family="Inter, sans-serif" font-size="14" font-weight="600" text-anchor="middle">Clinica Medicală</text>
  <text x="380" y="185" fill="white" font-family="Inter, sans-serif" font-size="12" text-anchor="middle">Centrul Principal</text>
  
  <!-- Departments -->
  <g>
    <rect x="50" y="240" width="150" height="50" fill="#10B981" rx="6"/>
    <text x="125" y="260" fill="white" font-family="Inter, sans-serif" font-size="12" font-weight="500" text-anchor="middle">Cardiologie</text>
    <text x="125" y="275" fill="white" font-family="Inter, sans-serif" font-size="10" text-anchor="middle">3 doctori</text>
    <!-- Connection line -->
    <line x1="200" y1="265" x2="300" y2="170" stroke="#6B7280" stroke-width="2"/>
  </g>
  
  <g>
    <rect x="220" y="240" width="150" height="50" fill="#F59E0B" rx="6"/>
    <text x="295" y="260" fill="white" font-family="Inter, sans-serif" font-size="12" font-weight="500" text-anchor="middle">Neurologie</text>
    <text x="295" y="275" fill="white" font-family="Inter, sans-serif" font-size="10" text-anchor="middle">2 doctori</text>
    <!-- Connection line -->
    <line x1="295" y1="240" x2="380" y2="200" stroke="#6B7280" stroke-width="2"/>
  </g>
  
  <g>
    <rect x="390" y="240" width="150" height="50" fill="#8B5CF6" rx="6"/>
    <text x="465" y="260" fill="white" font-family="Inter, sans-serif" font-size="12" font-weight="500" text-anchor="middle">Pediatrie</text>
    <text x="465" y="275" fill="white" font-family="Inter, sans-serif" font-size="10" text-anchor="middle">4 doctori</text>
    <!-- Connection line -->
    <line x1="465" y1="240" x2="420" y2="200" stroke="#6B7280" stroke-width="2"/>
  </g>
  
  <g>
    <rect x="560" y="240" width="150" height="50" fill="#EF4444" rx="6"/>
    <text x="635" y="260" fill="white" font-family="Inter, sans-serif" font-size="12" font-weight="500" text-anchor="middle">Chirurgie</text>
    <text x="635" y="275" fill="white" font-family="Inter, sans-serif" font-size="10" text-anchor="middle">5 doctori</text>
    <!-- Connection line -->
    <line x1="560" y1="265" x2="500" y2="170" stroke="#6B7280" stroke-width="2"/>
  </g>
  
  <!-- Services Panel -->
  <rect x="20" y="320" width="760" height="260" fill="white" stroke="#E5E7EB" rx="8"/>
  <text x="30" y="350" fill="#1F2937" font-family="Inter, sans-serif" font-size="18" font-weight="600">Servicii și Tarife</text>
  
  <!-- Service Items -->
  <g>
    <rect x="30" y="370" width="350" height="40" fill="#F8FAFC" stroke="#E5E7EB" rx="4"/>
    <text x="40" y="385" fill="#1F2937" font-family="Inter, sans-serif" font-size="14" font-weight="500">Consultație Cardiologie</text>
    <text x="40" y="400" fill="#6B7280" font-family="Inter, sans-serif" font-size="12">Durată: 30 min</text>
    <text x="320" y="395" fill="#2563EB" font-family="Inter, sans-serif" font-size="16" font-weight="600">200 RON</text>
  </g>
  
  <g>
    <rect x="30" y="420" width="350" height="40" fill="#F8FAFC" stroke="#E5E7EB" rx="4"/>
    <text x="40" y="435" fill="#1F2937" font-family="Inter, sans-serif" font-size="14" font-weight="500">EKG + Interpretare</text>
    <text x="40" y="450" fill="#6B7280" font-family="Inter, sans-serif" font-size="12">Durată: 15 min</text>
    <text x="320" y="445" fill="#2563EB" font-family="Inter, sans-serif" font-size="16" font-weight="600">150 RON</text>
  </g>
  
  <g>
    <rect x="30" y="470" width="350" height="40" fill="#F8FAFC" stroke="#E5E7EB" rx="4"/>
    <text x="40" y="485" fill="#1F2937" font-family="Inter, sans-serif" font-size="14" font-weight="500">Consultație Pediatrie</text>
    <text x="40" y="500" fill="#6B7280" font-family="Inter, sans-serif" font-size="12">Durată: 45 min</text>
    <text x="320" y="495" fill="#2563EB" font-family="Inter, sans-serif" font-size="16" font-weight="600">180 RON</text>
  </g>
  
  <!-- Statistics -->
  <g>
    <rect x="400" y="370" width="160" height="60" fill="#F0F9FF" rx="4"/>
    <text x="410" y="390" fill="#2563EB" font-family="Inter, sans-serif" font-size="20" font-weight="700">14</text>
    <text x="410" y="405" fill="#6B7280" font-family="Inter, sans-serif" font-size="12">Doctori activi</text>
    <text x="410" y="420" fill="#6B7280" font-family="Inter, sans-serif" font-size="12">în toate departamentele</text>
  </g>
  
  <g>
    <rect x="580" y="370" width="160" height="60" fill="#F0FDF4" rx="4"/>
    <text x="590" y="390" fill="#10B981" font-family="Inter, sans-serif" font-size="20" font-weight="700">47</text>
    <text x="590" y="405" fill="#6B7280" font-family="Inter, sans-serif" font-size="12">Servicii medicale</text>
    <text x="590" y="420" fill="#6B7280" font-family="Inter, sans-serif" font-size="12">disponibile</text>
  </g>
  
  <!-- Action Buttons -->
  <rect x="30" y="530" width="120" height="35" fill="#2563EB" rx="4"/>
  <text x="90" y="552" fill="white" font-family="Inter, sans-serif" font-size="14" text-anchor="middle">Adaugă Departament</text>
  
  <rect x="160" y="530" width="100" height="35" fill="#10B981" rx="4"/>
  <text x="210" y="552" fill="white" font-family="Inter, sans-serif" font-size="14" text-anchor="middle">Nou Serviciu</text>
  
  <!-- Colmed Branding -->
  <text x="700" y="590" fill="#6B7280" font-family="Inter, sans-serif" font-size="12">Colmed 2025</text>
</svg>